<mxfile host="app.diagrams.net" modified="2023-03-22T14:56:30.871Z" agent="5.0 (Windows NT 10.0; WOW64) AppleWebKit/537.36 (KHTML, like Gecko) Chrome/94.0.4606.71 Safari/537.36 Core/1.94.197.400 QQBrowser/11.6.5265.400" etag="lzqGt-Ky5BwzTOFPDh9v" version="21.0.10" type="github">
  <diagram name="第 1 页" id="ibpaF2ozujb1DpTm-QDM">
    <mxGraphModel dx="875" dy="456" grid="1" gridSize="10" guides="1" tooltips="1" connect="1" arrows="1" fold="1" page="1" pageScale="1" pageWidth="827" pageHeight="1169" math="0" shadow="0">
      <root>
        <mxCell id="0" />
        <mxCell id="1" parent="0" />
        <mxCell id="jax7F-d9kNQEDdiVlF6w-15" style="rounded=0;orthogonalLoop=1;jettySize=auto;html=1;exitX=0;exitY=0.3333333333333333;exitDx=0;exitDy=0;exitPerimeter=0;entryX=1;entryY=0.5;entryDx=0;entryDy=0;endArrow=classic;endFill=1;" parent="1" source="jax7F-d9kNQEDdiVlF6w-1" target="jax7F-d9kNQEDdiVlF6w-4" edge="1">
          <mxGeometry relative="1" as="geometry" />
        </mxCell>
        <mxCell id="jax7F-d9kNQEDdiVlF6w-16" style="rounded=0;orthogonalLoop=1;jettySize=auto;html=1;exitX=0;exitY=0.3333333333333333;exitDx=0;exitDy=0;exitPerimeter=0;entryX=1;entryY=0.5;entryDx=0;entryDy=0;" parent="1" source="jax7F-d9kNQEDdiVlF6w-1" target="jax7F-d9kNQEDdiVlF6w-6" edge="1">
          <mxGeometry relative="1" as="geometry" />
        </mxCell>
        <mxCell id="jax7F-d9kNQEDdiVlF6w-18" style="rounded=0;orthogonalLoop=1;jettySize=auto;html=1;exitX=0;exitY=0.3333333333333333;exitDx=0;exitDy=0;exitPerimeter=0;entryX=1;entryY=0.5;entryDx=0;entryDy=0;" parent="1" source="jax7F-d9kNQEDdiVlF6w-1" target="jax7F-d9kNQEDdiVlF6w-12" edge="1">
          <mxGeometry relative="1" as="geometry" />
        </mxCell>
        <mxCell id="jax7F-d9kNQEDdiVlF6w-19" style="rounded=0;orthogonalLoop=1;jettySize=auto;html=1;exitX=0;exitY=0.3333333333333333;exitDx=0;exitDy=0;exitPerimeter=0;entryX=0.5;entryY=1;entryDx=0;entryDy=0;" parent="1" source="jax7F-d9kNQEDdiVlF6w-1" target="jax7F-d9kNQEDdiVlF6w-13" edge="1">
          <mxGeometry relative="1" as="geometry" />
        </mxCell>
        <mxCell id="jax7F-d9kNQEDdiVlF6w-20" style="rounded=0;orthogonalLoop=1;jettySize=auto;html=1;exitX=1;exitY=0.3333333333333333;exitDx=0;exitDy=0;exitPerimeter=0;entryX=0.5;entryY=1;entryDx=0;entryDy=0;" parent="1" source="jax7F-d9kNQEDdiVlF6w-1" target="jax7F-d9kNQEDdiVlF6w-7" edge="1">
          <mxGeometry relative="1" as="geometry" />
        </mxCell>
        <mxCell id="jax7F-d9kNQEDdiVlF6w-22" style="rounded=0;orthogonalLoop=1;jettySize=auto;html=1;exitX=1;exitY=0.3333333333333333;exitDx=0;exitDy=0;exitPerimeter=0;entryX=0;entryY=1;entryDx=0;entryDy=0;" parent="1" source="jax7F-d9kNQEDdiVlF6w-1" target="jax7F-d9kNQEDdiVlF6w-8" edge="1">
          <mxGeometry relative="1" as="geometry" />
        </mxCell>
        <mxCell id="jax7F-d9kNQEDdiVlF6w-23" style="rounded=0;orthogonalLoop=1;jettySize=auto;html=1;exitX=1;exitY=0.3333333333333333;exitDx=0;exitDy=0;exitPerimeter=0;" parent="1" source="jax7F-d9kNQEDdiVlF6w-1" target="jax7F-d9kNQEDdiVlF6w-9" edge="1">
          <mxGeometry relative="1" as="geometry" />
        </mxCell>
        <mxCell id="jax7F-d9kNQEDdiVlF6w-24" style="rounded=0;orthogonalLoop=1;jettySize=auto;html=1;exitX=1;exitY=0.3333333333333333;exitDx=0;exitDy=0;exitPerimeter=0;entryX=0;entryY=0.5;entryDx=0;entryDy=0;" parent="1" source="jax7F-d9kNQEDdiVlF6w-1" target="jax7F-d9kNQEDdiVlF6w-10" edge="1">
          <mxGeometry relative="1" as="geometry" />
        </mxCell>
        <mxCell id="jax7F-d9kNQEDdiVlF6w-1" value="user" style="shape=umlActor;verticalLabelPosition=bottom;verticalAlign=top;html=1;outlineConnect=0;" parent="1" vertex="1">
          <mxGeometry x="370" y="200" width="40" height="60" as="geometry" />
        </mxCell>
        <mxCell id="jax7F-d9kNQEDdiVlF6w-4" value="用户注册" style="ellipse;whiteSpace=wrap;html=1;" parent="1" vertex="1">
          <mxGeometry x="250" y="150" width="60" height="40" as="geometry" />
        </mxCell>
        <mxCell id="jax7F-d9kNQEDdiVlF6w-6" value="新增计划" style="ellipse;whiteSpace=wrap;html=1;" parent="1" vertex="1">
          <mxGeometry x="250" y="210" width="60" height="40" as="geometry" />
        </mxCell>
        <mxCell id="jax7F-d9kNQEDdiVlF6w-7" value="上传证件照" style="ellipse;whiteSpace=wrap;html=1;" parent="1" vertex="1">
          <mxGeometry x="402" y="100" width="58" height="40" as="geometry" />
        </mxCell>
        <mxCell id="jax7F-d9kNQEDdiVlF6w-8" value="修改密码" style="ellipse;whiteSpace=wrap;html=1;" parent="1" vertex="1">
          <mxGeometry x="460" y="150" width="60" height="40" as="geometry" />
        </mxCell>
        <mxCell id="jax7F-d9kNQEDdiVlF6w-9" value="下载简历" style="ellipse;whiteSpace=wrap;html=1;" parent="1" vertex="1">
          <mxGeometry x="462" y="210" width="60" height="40" as="geometry" />
        </mxCell>
        <mxCell id="jax7F-d9kNQEDdiVlF6w-10" value="修改密码" style="ellipse;whiteSpace=wrap;html=1;" parent="1" vertex="1">
          <mxGeometry x="460" y="274" width="60" height="40" as="geometry" />
        </mxCell>
        <mxCell id="jax7F-d9kNQEDdiVlF6w-12" value="完成计划" style="ellipse;whiteSpace=wrap;html=1;" parent="1" vertex="1">
          <mxGeometry x="250" y="274" width="60" height="40" as="geometry" />
        </mxCell>
        <mxCell id="jax7F-d9kNQEDdiVlF6w-13" value="修改个人信息" style="ellipse;whiteSpace=wrap;html=1;" parent="1" vertex="1">
          <mxGeometry x="310" y="100" width="60" height="40" as="geometry" />
        </mxCell>
      </root>
    </mxGraphModel>
  </diagram>
</mxfile>
